<svg id="Calque_1" data-name="Calque 1" xmlns="http://www.w3.org/2000/svg" viewBox="0 0 106.23 106.23"><defs><style>.cls-1{fill:#222332;}.cls-2{fill:#fff;}</style></defs><rect class="cls-1" width="106.23" height="106.23" rx="24.51"/><path class="cls-2" d="M143,342.8,168.75,374s0-10.7,0-15.42c0-.74.2-.92.92-.91,3.67.05,8.05,0,11.68.86a28.76,28.76,0,0,1,16.31,10A30,30,0,0,1,205,385.71c1.37,15.52-8.2,29.31-23.27,33.09-10.43,2.62-19.9.28-28-6.76a30.29,30.29,0,0,1-10.58-21.16c-.08-.87-.11-1.74-.11-2.62C143,373.21,143,342.8,143,342.8Zm10.6,29.53s-.09,11.5.06,16.89a19.6,19.6,0,0,0,6.41,14.21,19.86,19.86,0,0,0,18.58,5.12c10.36-2.19,17.51-13.09,15.47-23.48a20.53,20.53,0,0,0-6.63-11.71,19.43,19.43,0,0,0-8.15-4.37v34.63Z" transform="translate(-120.95 -328.2)"/></svg>