<svg id="Calque_1" data-name="Calque 1" xmlns="http://www.w3.org/2000/svg" viewBox="0 0 256.15 105.7"><defs><style>.cls-1{fill:#222332;}</style></defs><path class="cls-1" d="M166.18,367q6.56,0,10.4,3.94t3.86,11.72v23.44h-12.3v-20q0-8.19-7-8.2-7.31,0-7.3,9.18v19H141.51V368.27h12.13V374h.16A13.45,13.45,0,0,1,166.18,367Z" transform="translate(-45.99 -327.39)"/><path class="cls-1" d="M205.6,367.13q8.76,0,13.76,5.12t5,15.12v2.78H197.24q1.14,6.89,9.67,6.89a19.76,19.76,0,0,0,11-3.44l4.51,9.34a29.41,29.41,0,0,1-15.66,4.43q-9.5,0-15.32-5.5t-5.82-14.5q0-9.42,5.53-14.84T205.6,367.13Zm-.41,8.77q-7,0-7.87,7H212.4a6.87,6.87,0,0,0-2.09-5.12A7.28,7.28,0,0,0,205.19,375.9Z" transform="translate(-45.99 -327.39)"/><path class="cls-1" d="M245.43,407.37a17.11,17.11,0,0,1-12.87-5.29q-5.09-5.28-5.08-14.88t5.08-14.87A17.11,17.11,0,0,1,245.43,367q8.43,0,12.37,6.4H258v-5.17h12.37v37.87H258V401h-.17Q253.87,407.36,245.43,407.37Zm3.44-11.31a8.86,8.86,0,1,0,0-17.71,8.52,8.52,0,0,0-6.23,2.42,9.65,9.65,0,0,0,0,12.87A8.52,8.52,0,0,0,248.87,396.06Z" transform="translate(-45.99 -327.39)"/><path class="cls-1" d="M302.14,378.6h-7.79V390q0,2.7.87,3.69c.57.65,1.65,1,3.23,1h1.4v11.48h-5.17q-12.71,0-12.7-12.79V378.6H274.6V368.27H282V353.11h12.37v15.16h7.79Z" transform="translate(-45.99 -327.39)"/><path class="cls-1" d="M46,327.39l35.28,42.77s0-14.67,0-21.15c0-1,.28-1.26,1.26-1.25,5,.07,11,.06,16,1.18,9.32,2.1,16.17,6.48,22.38,13.7a41,41,0,0,1,10.07,23.62c1.88,21.3-11.26,40.21-31.93,45.4-14.31,3.59-27.29.39-38.46-9.27-8.8-7.62-13.54-17.42-14.52-29q-.15-1.8-.15-3.6C46,369.11,46,327.39,46,327.39Zm14.54,40.52s-.12,15.78.08,23.17a27,27,0,0,0,8.8,19.49c7.22,6.74,15.79,9.06,25.49,7,14.21-3,24-18,21.23-32.21a28.21,28.21,0,0,0-9.1-16.06,26.5,26.5,0,0,0-11.18-6v47.51Z" transform="translate(-45.99 -327.39)"/></svg>