<svg id="Calque_1" data-name="Calque 1" xmlns="http://www.w3.org/2000/svg" viewBox="0 0 85.24 105.7"><defs><style>.cls-1{fill:#fab511;}</style></defs><path class="cls-1" d="M130.63,327.39l35.29,42.77s0-14.67,0-21.15c0-1,.28-1.26,1.27-1.25,5,.07,11,.06,16,1.18,9.31,2.1,16.16,6.48,22.37,13.7a41,41,0,0,1,10.07,23.62c1.89,21.3-11.25,40.21-31.93,45.4-14.3,3.59-27.29.39-38.45-9.27-8.81-7.62-13.55-17.42-14.53-29q-.15-1.8-.15-3.6C130.6,369.11,130.63,327.39,130.63,327.39Zm14.54,40.52s-.12,15.78.09,23.17a26.87,26.87,0,0,0,8.8,19.49c7.21,6.74,15.79,9.06,25.48,7,14.21-3,24-18,21.23-32.21a28.1,28.1,0,0,0-9.1-16.06,26.46,26.46,0,0,0-11.17-6v47.51Z" transform="translate(-130.59 -327.39)"/></svg>